<?xml version="1.0"?>
<svg xmlns="http://www.w3.org/2000/svg" xmlns:xlink="http://www.w3.org/1999/xlink" xmlns:svgjs="http://svgjs.com/svgjs" version="1.1" width="512" height="512" x="0" y="0" viewBox="0 0 512 512" style="enable-background:new 0 0 512 512" xml:space="preserve" class=""><g>
<g xmlns="http://www.w3.org/2000/svg">
	<g>
		<path d="M355.724,384.775c-99.313,0-179.823-80.51-179.823-179.823c0-62.061,31.44-116.78,79.261-149.097    c-5.542-0.403-11.139-0.611-16.784-0.611C112.248,55.244,10,157.492,10,283.622S112.248,512,238.378,512    c101.368,0,187.31-66.044,217.147-157.449C426.97,373.639,392.649,384.775,355.724,384.775z" fill="#0bbbd6" data-original="#000000" style="" class=""/>
	</g>
</g>
<g xmlns="http://www.w3.org/2000/svg">
	<g>
		<polygon points="439.463,94.007 495.465,0 393,0 393,30 442.674,30 386.672,124.007 502,124.007 502,94.007   " fill="#0bbbd6" data-original="#000000" style="" class=""/>
	</g>
</g>
<g xmlns="http://www.w3.org/2000/svg">
	<g>
		<polygon points="353.742,114.257 261.091,114.257 261.091,144.257 300.951,144.257 257.735,216.8 352.758,216.8 352.758,186.8     310.526,186.8   " fill="#0bbbd6" data-original="#000000" style="" class=""/>
	</g>
</g>
<g xmlns="http://www.w3.org/2000/svg">
	<g>
		<polygon points="409.572,284.758 436.925,238.843 359.51,238.843 359.51,268.843 384.134,268.843 356.781,314.758 438.01,314.758     438.01,284.758   " fill="#0bbbd6" data-original="#000000" style="" class=""/>
	</g>
</g>
<g xmlns="http://www.w3.org/2000/svg">
</g>
<g xmlns="http://www.w3.org/2000/svg">
</g>
<g xmlns="http://www.w3.org/2000/svg">
</g>
<g xmlns="http://www.w3.org/2000/svg">
</g>
<g xmlns="http://www.w3.org/2000/svg">
</g>
<g xmlns="http://www.w3.org/2000/svg">
</g>
<g xmlns="http://www.w3.org/2000/svg">
</g>
<g xmlns="http://www.w3.org/2000/svg">
</g>
<g xmlns="http://www.w3.org/2000/svg">
</g>
<g xmlns="http://www.w3.org/2000/svg">
</g>
<g xmlns="http://www.w3.org/2000/svg">
</g>
<g xmlns="http://www.w3.org/2000/svg">
</g>
<g xmlns="http://www.w3.org/2000/svg">
</g>
<g xmlns="http://www.w3.org/2000/svg">
</g>
<g xmlns="http://www.w3.org/2000/svg">
</g>
</g></svg>
