<?xml version="1.0" encoding="UTF-8" standalone="no"?>
<svg
   xmlns:dc="http://purl.org/dc/elements/1.1/"
   xmlns:cc="http://creativecommons.org/ns#"
   xmlns:rdf="http://www.w3.org/1999/02/22-rdf-syntax-ns#"
   xmlns:svg="http://www.w3.org/2000/svg"
   xmlns="http://www.w3.org/2000/svg"
   xmlns:sodipodi="http://sodipodi.sourceforge.net/DTD/sodipodi-0.dtd"
   xmlns:inkscape="http://www.inkscape.org/namespaces/inkscape"
   version="1.1"
   width="512"
   height="512"
   x="0"
   y="0"
   viewBox="0 0 340 340"
   style="enable-background:new 0 0 512 512"
   xml:space="preserve"
   class=""
   id="svg48"
   sodipodi:docname="water.svg"
   inkscape:version="1.0.1 (c497b03c, 2020-09-10)"><metadata
     id="metadata54"><rdf:RDF><cc:Work
         rdf:about=""><dc:format>image/svg+xml</dc:format><dc:type
           rdf:resource="http://purl.org/dc/dcmitype/StillImage" /><dc:title></dc:title></cc:Work></rdf:RDF></metadata><defs
     id="defs52" /><sodipodi:namedview
     pagecolor="#ffffff"
     bordercolor="#666666"
     borderopacity="1"
     objecttolerance="10"
     gridtolerance="10"
     guidetolerance="10"
     inkscape:pageopacity="0"
     inkscape:pageshadow="2"
     inkscape:window-width="1920"
     inkscape:window-height="1027"
     id="namedview50"
     showgrid="false"
     inkscape:zoom="1.3027344"
     inkscape:cx="256"
     inkscape:cy="225.29535"
     inkscape:window-x="0"
     inkscape:window-y="25"
     inkscape:window-maximized="0"
     inkscape:current-layer="svg48" /><g
     id="g46">
<g
   id="g14">
	<g
   id="g12">
		<path
   d="M314.8,2.4c-1.2-1.2-3.2-2.4-5.6-2.4H30.8c-2,0-4,0.8-5.6,2.4c-1.2,1.6-2,3.6-1.6,6L70,333.6c0.4,3.6,3.6,6.4,7.2,6.4    h185.6c3.6,0,6.8-2.8,7.2-6.4L316.4,8.4C316.8,6.4,316,4,314.8,2.4z M256.4,325.2H83.6L52.8,110c21.2-8.4,32.8-3.6,47.2,2.4    c10,4,20.8,8.8,35.2,8.8c10.4,0,22.4-2.4,37.6-8.8c24.4-11.2,36.8-6,52.4,0.4c10,4,20.8,8.8,35.2,8.8c7.6,0,16-1.2,26-4.4    L256.4,325.2z M288.8,100c-28,11.2-42.4,5.2-57.6-1.2c-16-6.8-33.6-14-64,0c-30.4,13.2-45.2,6.8-61.2,0c-14.4-6-30-12.4-55.2-3.6    L39.2,14.8h261.6L288.8,100z"
   fill="#0bbbd6"
   data-original="#000000"
   style=""
   class=""
   id="path10" />
	</g>
</g>
<g
   id="g16">
</g>
<g
   id="g18">
</g>
<g
   id="g20">
</g>
<g
   id="g22">
</g>
<g
   id="g24">
</g>
<g
   id="g26">
</g>
<g
   id="g28">
</g>
<g
   id="g30">
</g>
<g
   id="g32">
</g>
<g
   id="g34">
</g>
<g
   id="g36">
</g>
<g
   id="g38">
</g>
<g
   id="g40">
</g>
<g
   id="g42">
</g>
<g
   id="g44">
</g>
</g><path
     style="fill:#0bbbd6;fill-opacity:1;stroke:#ffffff;stroke-width:0.767616"
     d="m 125.95649,486.86057 c -1.04023,-5.00931 -45.754006,-319.24106 -45.565499,-320.21736 0.521698,-2.70194 19.06726,-7.10804 30.145739,-7.16209 12.34465,-0.0602 16.35182,0.98828 41.83508,10.94656 26.93869,10.52702 37.05541,12.74113 55.13312,12.06622 17.26617,-0.64461 33.96708,-4.91787 57.54094,-14.72301 16.89618,-7.02767 31.36862,-9.33715 44.30346,-7.06984 8.53843,1.49668 13.35946,3.0573 29.93703,9.69094 23.68073,9.47602 34.1815,12.20185 49.51124,12.85231 10.73154,0.45535 21.7382,-0.8359 34.3106,-4.02515 4.07842,-1.03457 7.47156,-1.79891 7.5403,-1.69852 0.0875,0.12774 -44.49709,309.31545 -44.88324,311.25898 -0.021,0.10555 -58.38789,0.1919 -129.70427,0.1919 H 126.39485 Z"
     id="path56"
     transform="scale(0.6640625)" /><path
     style="fill:#0bbbd6;fill-opacity:1;stroke:#ffffff;stroke-width:0.767616"
     d=""
     id="path58"
     transform="scale(0.6640625)" /><path
     style="fill:#0bbbd6;fill-opacity:1;stroke:#ffffff;stroke-width:0.767616"
     d=""
     id="path60"
     transform="scale(0.6640625)" /><path
     style="fill:#0bbbd6;fill-opacity:1;stroke:#ffffff;stroke-width:0.767616"
     d=""
     id="path62"
     transform="scale(0.6640625)" /><path
     style="fill:#0bbbd6;fill-opacity:1;stroke:#ffffff;stroke-width:0.767616"
     d=""
     id="path64"
     transform="scale(0.6640625)" /></svg>
